<svg width="16" height="17" viewBox="0 0 16 17" fill="none" xmlns="http://www.w3.org/2000/svg">
<path d="M12.56 2.44L11.11 3.89C12.84 4.94 14 6.83 14 9C14 10.5913 13.3679 12.1174 12.2426 13.2426C11.1174 14.3679 9.5913 15 8 15C6.4087 15 4.88258 14.3679 3.75736 13.2426C2.63214 12.1174 2 10.5913 2 9C2 6.83 3.16 4.94 4.88 3.88L3.44 2.44C1.36 3.88 0 6.28 0 9C0 11.1217 0.842855 13.1566 2.34315 14.6569C3.84344 16.1571 5.87827 17 8 17C10.1217 17 12.1566 16.1571 13.6569 14.6569C15.1571 13.1566 16 11.1217 16 9C16 6.28 14.64 3.88 12.56 2.44ZM9 0H7V10H9" fill="black"/>
</svg>
