<svg width="16" height="16" viewBox="0 0 16 16" fill="none" xmlns="http://www.w3.org/2000/svg">
<path d="M2.18 11.2C2.75817 11.2 3.31266 11.4297 3.72149 11.8385C4.13032 12.2473 4.36 12.8018 4.36 13.38C4.36 14.56 3.38 15.56 2.18 15.56C1 15.56 0 14.56 0 13.38C0 12.8018 0.229678 12.2473 0.638507 11.8385C1.04734 11.4297 1.60183 11.2 2.18 11.2ZM0 0C4.12677 0 8.08452 1.63935 11.0026 4.55742C13.9206 7.47548 15.56 11.4332 15.56 15.56H12.73C12.73 13.8883 12.4007 12.2329 11.761 10.6884C11.1212 9.14397 10.1836 7.74062 9.00147 6.55853C7.81938 5.37644 6.41603 4.43876 4.87156 3.79901C3.32709 3.15927 1.67173 2.83 0 2.83V0ZM0 5.66C2.62564 5.66 5.14375 6.70303 7.00036 8.55964C8.85697 10.4163 9.9 12.9344 9.9 15.56H7.07C7.07 13.6849 6.32513 11.8866 4.99924 10.5608C3.67336 9.23487 1.87508 8.49 0 8.49V5.66Z" fill="black"/>
</svg>
