<svg width="30" height="18" viewBox="0 0 30 18" fill="none" xmlns="http://www.w3.org/2000/svg">
<path d="M24.8938 10.035C24.4088 9.4225 24.5475 9.15 24.8938 8.6025C24.9 8.59625 28.9037 3.06375 29.3162 1.1875L29.3188 1.18625C29.5238 0.5025 29.3188 0 28.3275 0H25.0475C24.2125 0 23.8275 0.43125 23.6213 0.91375C23.6213 0.91375 21.9513 4.91125 19.5887 7.5025C18.8263 8.25125 18.4738 8.49125 18.0575 8.49125C17.8525 8.49125 17.5338 8.25125 17.5338 7.5675V1.18625C17.5338 0.36625 17.3 0 16.6087 0H11.4513C10.9275 0 10.6163 0.3825 10.6163 0.73875C10.6163 1.51625 11.7975 1.695 11.92 3.8825V8.62875C11.92 9.66875 11.7312 9.86 11.3125 9.86C10.1975 9.86 7.49125 5.84625 5.8875 1.2525C5.56375 0.36125 5.2475 0.00124991 4.40625 0.00124991H1.125C0.18875 0.00124991 0 0.4325 0 0.915C0 1.7675 1.115 6.00625 5.185 11.6063C7.8975 15.4288 11.7175 17.5 15.1925 17.5C17.2812 17.5 17.5363 17.04 17.5363 16.2488C17.5363 12.5963 17.3475 12.2513 18.3937 12.2513C18.8787 12.2513 19.7137 12.4913 21.6637 14.335C23.8925 16.5213 24.2588 17.5 25.5063 17.5H28.7862C29.7212 17.5 30.195 17.04 29.9225 16.1325C29.2987 14.2238 25.0838 10.2975 24.8938 10.035Z" fill="currentColor"/>
</svg>
