<svg viewBox="0 0 30 20" xmlns="http://www.w3.org/2000/svg" xmlns:xlink="http://www.w3.org/1999/xlink"><style>:root&gt;svg{display:none}:root&gt;svg:target{display:block}</style><svg fill="none" viewBox="0 0 20 20" id="arrow-left" xmlns="http://www.w3.org/2000/svg"><path d="M20 10a10 10 0 11-20 0 10 10 0 0120 0zm-8-5l-5 5 5 5V5z" fill="currentColor"/></svg><svg fill="none" viewBox="0 0 20 20" id="arrow-right" xmlns="http://www.w3.org/2000/svg"><path d="M0 10a10 10 0 1120 0 10 10 0 01-20 0zm8 5l5-5-5-5v10z" fill="currentColor"/></svg><svg fill="none" viewBox="0 0 20 20" id="cart" xmlns="http://www.w3.org/2000/svg"><path d="M16 16c-1.11 0-2 .89-2 2a2 2 0 102-2zM0 0v2h2l3.6 7.59-1.36 2.45c-.15.28-.24.61-.24.96a2 2 0 002 2h12v-2H6.42a.25.25 0 01-.25-.25c0-.05.01-.09.03-.12L7.1 11h7.45c.75 0 1.41-.42 1.75-1.03l3.58-6.47c.07-.16.12-.33.12-.5a1 1 0 00-1-1H4.21l-.94-2H0zm6 16c-1.11 0-2 .89-2 2a2 2 0 102-2z" fill="currentColor"/></svg><svg fill="none" viewBox="0 0 14 12" id="chevron-right" xmlns="http://www.w3.org/2000/svg"><path d="M0 1.41L1.41 0l6 6-6 6L0 10.59 4.58 6 0 1.41zm6 0L7.41 0l6 6-6 6L6 10.59 10.58 6 6 1.41z" fill="currentColor"/></svg><svg fill="none" viewBox="0 0 14 14" id="close" xmlns="http://www.w3.org/2000/svg"><path d="M14 1.41L12.59 0 7 5.59 1.41 0 0 1.41 5.59 7 0 12.59 1.41 14 7 8.41 12.59 14 14 12.59 8.41 7 14 1.41z" fill="currentColor"/></svg><svg fill="none" viewBox="0 0 20 17" id="home" xmlns="http://www.w3.org/2000/svg"><path d="M8 17v-6h4v6h5V9h3L10 0 0 9h3v8h5z" fill="currentColor"/></svg><svg fill="none" viewBox="0 0 20 16" id="mail" xmlns="http://www.w3.org/2000/svg"><path d="M18 4l-8 5-8-5V2l8 5 8-5v2zm0-4H2C.89 0 0 .89 0 2v12a2 2 0 002 2h16a2 2 0 002-2V2a2 2 0 00-2-2z" fill="currentColor"/></svg><svg fill="none" viewBox="0 0 18 12" id="menu" xmlns="http://www.w3.org/2000/svg"><path d="M0 0h18v2H0V0zm0 5h18v2H0V5zm0 5h18v2H0v-2z" fill="currentColor"/></svg><svg fill="none" viewBox="0 0 18 18" id="phone" xmlns="http://www.w3.org/2000/svg"><path d="M3.62 7.79c1.44 2.83 3.76 5.15 6.59 6.59l2.2-2.2c.28-.28.67-.36 1.02-.25 1.12.37 2.32.57 3.57.57a1 1 0 011 1V17a1 1 0 01-1 1A17 17 0 010 1a1 1 0 011-1h3.5a1 1 0 011 1c0 1.25.2 2.45.57 3.57.11.35.03.74-.25 1.02l-2.2 2.2z" fill="currentColor"/></svg><svg fill="none" viewBox="0 0 24 19" id="phone-classic" xmlns="http://www.w3.org/2000/svg"><path d="M12 0C7.46 0 3.34 1.78.29 4.67c-.18.18-.29.43-.29.71 0 .28.11.53.29.71l2.48 2.48a1.01 1.01 0 001.41.01c.79-.74 1.69-1.36 2.66-1.85.33-.16.56-.5.56-.9v-3.1C8.85 2.25 10.39 2 12 2c1.59 0 3.14.25 4.59.72v3.1c0 .39.23.74.56.9.98.49 1.85 1.12 2.67 1.85.18.18.43.28.68.28.3 0 .55-.11.73-.29l2.48-2.48c.18-.18.29-.43.29-.71 0-.28-.12-.52-.3-.7A16.965 16.965 0 0012 0zM9 4v3s-6 5-6 8v4h18v-4c0-3-6-8-6-8V4h-2v2h-2V4H9zm3 5a4 4 0 110 8 4 4 0 010-8zm0 1.5a2.5 2.5 0 100 5 2.5 2.5 0 000-5z" fill="currentColor"/></svg><svg fill="none" viewBox="0 0 16 17" id="power" xmlns="http://www.w3.org/2000/svg"><path d="M12.56 2.44l-1.45 1.45A5.969 5.969 0 0114 9 6 6 0 112 9c0-2.17 1.16-4.06 2.88-5.12L3.44 2.44A7.961 7.961 0 000 9a8 8 0 0016 0c0-2.72-1.36-5.12-3.44-6.56zM9 0H7v10h2" fill="currentColor"/></svg><svg fill="none" viewBox="0 0 16 16" id="rss" xmlns="http://www.w3.org/2000/svg"><path d="M2.18 11.2a2.18 2.18 0 012.18 2.18c0 1.18-.98 2.18-2.18 2.18-1.18 0-2.18-1-2.18-2.18a2.18 2.18 0 012.18-2.18zM0 0a15.56 15.56 0 0115.56 15.56h-2.83A12.731 12.731 0 000 2.83V0zm0 5.66a9.9 9.9 0 019.9 9.9H7.07A7.07 7.07 0 000 8.49V5.66z" fill="currentColor"/></svg><svg fill="none" viewBox="0 0 18 18" id="search" xmlns="http://www.w3.org/2000/svg"><path d="M6.5 0A6.5 6.5 0 0113 6.5c0 1.61-.59 3.09-1.56 4.23l.27.27h.79l5 5-1.5 1.5-5-5v-.79l-.27-.27A6.516 6.516 0 016.5 13a6.5 6.5 0 110-13zm0 2C4 2 2 4 2 6.5S4 11 6.5 11 11 9 11 6.5 9 2 6.5 2z" fill="currentColor"/></svg><svg fill="none" viewBox="0 0 22 19" id="triangle" xmlns="http://www.w3.org/2000/svg"><path d="M0 19h22L11 0" fill="currentColor"/></svg><svg fill="none" viewBox="0 0 21 17" id="twitter" xmlns="http://www.w3.org/2000/svg"><path d="M20.92 2c-.77.35-1.6.58-2.46.69.88-.53 1.56-1.37 1.88-2.38-.83.5-1.75.85-2.72 1.05C16.83.5 15.72 0 14.46 0c-2.35 0-4.27 1.92-4.27 4.29 0 .34.04.67.11.98C6.74 5.09 3.57 3.38 1.46.79c-.37.63-.58 1.37-.58 2.15 0 1.49.75 2.81 1.91 3.56-.71 0-1.37-.2-1.95-.5v.03c0 2.08 1.48 3.82 3.44 4.21a4.22 4.22 0 01-1.93.07 4.28 4.28 0 004 2.98 8.521 8.521 0 01-5.33 1.84c-.34 0-.68-.02-1.02-.06C1.9 16.29 4.16 17 6.58 17c7.88 0 12.21-6.54 12.21-12.21 0-.19 0-.37-.01-.56.84-.6 1.56-1.36 2.14-2.23z" fill="currentColor"/></svg><svg fill="none" viewBox="0 0 30 18" id="vk" xmlns="http://www.w3.org/2000/svg"><path d="M24.894 10.035c-.485-.613-.346-.885 0-1.433.006-.006 4.01-5.538 4.422-7.415h.003c.205-.685 0-1.187-.991-1.187h-3.28c-.835 0-1.22.431-1.427.914 0 0-1.67 3.997-4.032 6.588-.763.75-1.115.99-1.531.99-.206 0-.524-.24-.524-.925v-6.38C17.534.366 17.3 0 16.609 0H11.45c-.524 0-.835.383-.835.739 0 .777 1.181.956 1.304 3.143V8.63c0 1.04-.189 1.231-.607 1.231-1.116 0-3.822-4.014-5.426-8.607C5.564.36 5.248 0 4.408 0H1.124C.189.001 0 .432 0 .915c0 .853 1.115 5.091 5.185 10.691C7.898 15.43 11.717 17.5 15.193 17.5c2.088 0 2.343-.46 2.343-1.251 0-3.653-.189-3.998.858-3.998.485 0 1.32.24 3.27 2.084 2.228 2.186 2.595 3.165 3.842 3.165h3.28c.935 0 1.409-.46 1.136-1.367-.623-1.91-4.838-5.835-5.028-6.098z" fill="currentColor"/></svg><svg fill="none" viewBox="0 0 20 14" id="youtube" xmlns="http://www.w3.org/2000/svg"><path d="M8 10l5.19-3L8 4v6zm11.56-7.83c.13.47.22 1.1.28 1.9.07.8.1 1.49.1 2.09L20 7c0 2.19-.16 3.8-.44 4.83-.25.9-.83 1.48-1.73 1.73-.47.13-1.33.22-2.65.28-1.3.07-2.49.1-3.59.1L10 14c-4.19 0-6.8-.16-7.83-.44-.9-.25-1.48-.83-1.73-1.73-.13-.47-.22-1.1-.28-1.9-.07-.8-.1-1.49-.1-2.09L0 7c0-2.19.16-3.8.44-4.83.25-.9.83-1.48 1.73-1.73C2.64.31 3.5.22 4.82.16c1.3-.07 2.49-.1 3.59-.1L10 0c4.19 0 6.8.16 7.83.44.9.25 1.48.83 1.73 1.73z" fill="currentColor"/></svg></svg>